<svg width="52" height="52" viewBox="0 0 52 52" fill="none" xmlns="http://www.w3.org/2000/svg">
<g clip-path="url(#clip0_14_413)">
<path d="M48.2804 20.2854C47.3459 19.5928 46.5495 18.7313 45.9323 17.7455C45.6453 16.5584 45.5863 15.3276 45.7584 14.1185C45.8965 11.8532 46.0541 9.28574 44.3836 7.61849C42.7131 5.95124 40.1505 6.10399 37.8836 6.24536C36.6739 6.41702 35.4425 6.35746 34.255 6.06986C33.2691 5.45266 32.4077 4.65621 31.7151 3.72174C30.1893 1.97811 28.4603 0.000488281 26 0.000488281C23.5397 0.000488281 21.8107 1.97811 20.2849 3.72011C19.5923 4.65459 18.7309 5.45103 17.745 6.06824C16.5574 6.35592 15.326 6.41493 14.1164 6.24211C11.856 6.10236 9.28687 5.94636 7.61637 7.61686C5.94587 9.28736 6.1035 11.8516 6.24325 14.1169C6.41574 15.3266 6.35618 16.5581 6.06775 17.7455C5.45055 18.7313 4.6541 19.5928 3.71963 20.2854C1.97763 21.8112 0 23.5402 0 26.0005C0 28.4607 1.97763 30.1897 3.71963 31.7156C4.6541 32.4081 5.45055 33.2696 6.06775 34.2555C6.35477 35.4431 6.41377 36.6745 6.24163 37.8841C6.1035 40.1477 5.94587 42.7152 7.61637 44.3841C9.28687 46.053 11.8414 45.8986 14.1164 45.7572C15.3261 45.5848 16.5576 45.6443 17.745 45.9327C18.7309 46.5499 19.5923 47.3464 20.2849 48.2809C21.8107 50.0229 23.5397 52.0005 26 52.0005C28.4603 52.0005 30.1893 50.0229 31.7151 48.2809C32.4077 47.3464 33.2691 46.5499 34.255 45.9327C35.442 45.6449 36.6729 45.5859 37.882 45.7589C40.144 45.8986 42.7131 46.0562 44.382 44.3841C46.0509 42.712 45.8949 40.1494 45.7551 37.8841C45.5826 36.6744 45.6422 35.4429 45.9306 34.2555C46.5478 33.2696 47.3443 32.4081 48.2787 31.7156C50.0224 30.1897 52 28.4607 52 26.0005C52 23.5402 50.0224 21.8112 48.2804 20.2854ZM46.1402 29.27C44.804 30.2601 43.7067 31.5373 42.9292 33.0075C42.4161 34.6468 42.274 36.3797 42.5133 38.0807C42.6108 39.6586 42.7213 41.4494 42.0859 42.0831C41.4505 42.7169 39.6597 42.6064 38.0819 42.5121C36.3815 42.2732 34.6493 42.4147 33.0102 42.9265C31.54 43.7039 30.2629 44.8012 29.2727 46.1375C28.145 47.4245 26.9848 48.7505 26 48.7505C25.0152 48.7505 23.855 47.4245 22.7305 46.1407C21.7404 44.8044 20.4632 43.7072 18.993 42.9297C18.0129 42.5639 16.9705 42.3944 15.925 42.4309C15.2588 42.4309 14.5828 42.4731 13.9133 42.5137C12.3305 42.6112 10.543 42.7217 9.91087 42.0864C9.27875 41.451 9.38438 39.6619 9.48188 38.0824C9.72166 36.382 9.58011 34.6496 9.0675 33.0107C8.29004 31.5405 7.19279 30.2634 5.8565 29.2732C4.576 28.1455 3.25 26.9852 3.25 26.0005C3.25 25.0157 4.576 23.8555 5.85975 22.731C7.19604 21.7409 8.29329 20.4637 9.07075 18.9935C9.58393 17.3542 9.72603 15.6212 9.48675 13.9202C9.38925 12.3391 9.27875 10.5484 9.9125 9.91299C10.5462 9.27761 12.337 9.38974 13.9165 9.48399C15.6168 9.72624 17.3497 9.58465 18.9881 9.06961C20.4583 8.29215 21.7355 7.1949 22.7256 5.85861C23.855 4.57649 25.0152 3.25049 26 3.25049C26.9848 3.25049 28.145 4.57649 29.2695 5.86024C30.2596 7.19653 31.5368 8.29378 33.007 9.07124C34.6463 9.58453 36.3792 9.72663 38.0803 9.48724C39.6598 9.38811 41.4489 9.27761 42.0826 9.91461C42.7164 10.5516 42.6091 12.3391 42.5116 13.9186C42.2718 15.619 42.4134 17.3514 42.926 18.9902C43.7035 20.4605 44.8007 21.7376 46.137 22.7277C47.424 23.8555 48.75 25.0157 48.75 26.0005C48.75 26.9852 47.424 28.1455 46.1402 29.27Z" fill="black"/>
<path d="M15.0032 29.335L13.531 30.0224L12.8371 28.5485L14.311 27.8628C14.7017 27.6805 15.0039 27.3504 15.1513 26.9453C15.2986 26.5401 15.279 26.093 15.0967 25.7023C14.9144 25.3117 14.5843 25.0094 14.1792 24.862C13.774 24.7147 13.3269 24.7343 12.9362 24.9166L9.99011 26.2914C9.59968 26.4737 9.29766 26.8037 9.15047 27.2087C9.00328 27.6137 9.02298 28.0605 9.20523 28.451L11.2674 32.8727L13.3262 37.2862C13.4983 37.6377 13.7895 37.9169 14.1481 38.074C14.5066 38.2311 14.9092 38.2559 15.2844 38.1442C15.5046 38.0749 15.7076 37.9595 15.8797 37.8057C16.0519 37.6518 16.1893 37.4631 16.2827 37.252C16.3762 37.0408 16.4237 36.8122 16.4219 36.5814C16.4201 36.3505 16.3691 36.1227 16.2724 35.913L14.8976 32.9669L16.3715 32.2795C16.7553 32.0931 17.0503 31.7633 17.193 31.3611C17.3357 30.959 17.3145 30.517 17.134 30.1304C16.9535 29.7438 16.6281 29.4437 16.2283 29.2948C15.8284 29.146 15.3861 29.1605 14.9967 29.335H15.0032Z" fill="black"/>
<path d="M27.4313 29.7167L24.5145 27.9503C25.061 27.2293 25.3504 26.3459 25.3363 25.4412C25.3223 24.5365 25.0056 23.6625 24.4369 22.9588C23.8682 22.2551 23.0802 21.7621 22.1986 21.5585C21.317 21.3548 20.3926 21.4524 19.5728 21.8354L17.3612 22.8641C17.1675 22.9542 16.9935 23.0816 16.8492 23.2391C16.7048 23.3965 16.5929 23.5809 16.5198 23.7816C16.4468 23.9824 16.414 24.1955 16.4235 24.4089C16.4329 24.6223 16.4843 24.8318 16.5747 25.0253L20.6957 33.8605C20.8708 34.2189 21.1694 34.5021 21.5366 34.6579C21.9039 34.8138 22.315 34.8318 22.6945 34.7087C22.9089 34.6333 23.1052 34.514 23.271 34.3586C23.4368 34.2031 23.5685 34.0149 23.6576 33.8058C23.7467 33.5967 23.7913 33.3714 23.7886 33.1441C23.7859 32.9168 23.7359 32.6926 23.6418 32.4857L22.8196 30.7128L25.743 32.5003C25.9964 32.6554 26.2876 32.7375 26.5847 32.7376C26.9362 32.7298 27.2758 32.6093 27.5535 32.3938C27.8313 32.1783 28.0324 31.8793 28.1273 31.5408C28.2222 31.2023 28.2057 30.8423 28.0804 30.5139C27.9551 30.1854 27.7276 29.906 27.4313 29.7167V29.7167ZM21.5651 24.7474C21.7152 24.8028 21.8456 24.9012 21.94 25.0304C22.0344 25.1596 22.0885 25.3138 22.0956 25.4736C22.1028 25.6335 22.0625 25.7918 21.98 25.9289C21.8975 26.066 21.7763 26.1756 21.6317 26.2441L20.894 26.5886L20.2082 25.1163L20.9476 24.7718C21.0437 24.727 21.1479 24.7017 21.2539 24.6976C21.3599 24.6934 21.4657 24.7103 21.5651 24.7474Z" fill="black"/>
<path d="M33.2656 26.1988L31.7917 26.8861L31.1043 25.4123L32.5782 24.7265C32.9695 24.5438 33.2722 24.2131 33.4197 23.8072C33.5672 23.4012 33.5474 22.9533 33.3647 22.562C33.182 22.1707 32.8513 21.868 32.4453 21.7205C32.0394 21.573 31.5915 21.5928 31.2002 21.7755L29.7279 22.4629L29.0422 20.989L30.5144 20.3033C30.8938 20.1144 31.1843 19.7848 31.3241 19.3848C31.4639 18.9847 31.4419 18.5459 31.2628 18.1618C31.0837 17.7778 30.7617 17.4789 30.3654 17.3289C29.9691 17.1789 29.5298 17.1896 29.1413 17.3588L26.1952 18.7303C25.8048 18.9126 25.5027 19.2426 25.3555 19.6476C25.2084 20.0525 25.2281 20.4994 25.4103 20.8899L29.5329 29.738C29.7153 30.1284 30.0452 30.4305 30.4502 30.5777C30.8552 30.7248 31.3021 30.7051 31.6926 30.5229L34.6387 29.1498C35.03 28.9677 35.333 28.6376 35.4809 28.2321C35.6289 27.8267 35.6097 27.379 35.4276 26.9877C35.2455 26.5964 34.9155 26.2934 34.51 26.1455C34.1045 25.9975 33.6569 26.0167 33.2656 26.1988V26.1988Z" fill="black"/>
<path d="M40.6246 22.7651L39.1524 23.4525L38.465 21.9786L39.9389 21.2929C40.1323 21.2026 40.3061 21.0751 40.4503 20.9177C40.5944 20.7603 40.7062 20.576 40.7791 20.3754C40.8521 20.1747 40.8848 19.9617 40.8755 19.7485C40.8661 19.5352 40.8148 19.3259 40.7245 19.1324C40.6343 18.939 40.5068 18.7652 40.3494 18.621C40.1919 18.4769 40.0077 18.3651 39.807 18.2921C39.6064 18.2192 39.3934 18.1864 39.1801 18.1958C38.9669 18.2052 38.7576 18.2565 38.5641 18.3467L37.0919 19.0341L36.4045 17.5602L37.8784 16.8745C38.269 16.6922 38.5713 16.3621 38.7186 15.957C38.866 15.5518 38.8464 15.1047 38.664 14.714C38.4817 14.3234 38.1517 14.0211 37.7466 13.8738C37.3414 13.7264 36.8943 13.7461 36.5036 13.9284L33.5575 15.3015C33.1671 15.4838 32.865 15.8138 32.7179 16.2188C32.5707 16.6238 32.5904 17.0706 32.7726 17.4611L34.8364 21.8876L36.8936 26.2995C37.076 26.6899 37.4059 26.9919 37.8109 27.1391C38.2159 27.2863 38.6628 27.2666 39.0532 27.0844L41.9994 25.7096C42.3831 25.5232 42.6782 25.1933 42.8209 24.7912C42.9635 24.3891 42.9423 23.947 42.7618 23.5604C42.5813 23.1738 42.256 22.8737 41.8562 22.7249C41.4563 22.5761 41.0139 22.5906 40.6246 22.7651Z" fill="black"/>
</g>
<defs>
<clipPath id="clip0_14_413">
<rect width="52" height="52" fill="white" transform="translate(0 0.000488281)"/>
</clipPath>
</defs>
</svg>
