<svg width="46" height="44" viewBox="0 0 46 44" fill="none" xmlns="http://www.w3.org/2000/svg">
<path d="M6.67503 43.7759C9.89413 43.7759 12.5882 41.4853 13.2132 38.4486L16.4618 38.4486C17.0868 41.4853 19.7809 43.7759 23 43.7759C26.2191 43.7759 28.9132 41.4853 29.5382 38.4486L32.7868 38.4486C33.4118 41.4854 36.1059 43.7759 39.325 43.7759C43.0056 43.7759 46 40.7815 46 37.1009L46 1.5727C46 0.828438 45.3966 0.225048 44.6523 0.225048C43.9081 0.225048 43.3047 0.828438 43.3047 1.5727C43.3047 3.76714 41.5194 5.55233 39.325 5.55233C37.1305 5.55233 35.3453 3.76705 35.3453 1.5727C35.3453 0.828437 34.742 0.225047 33.9977 0.225047L28.3274 0.225047C27.5831 0.225046 26.9797 0.828436 26.9797 1.5727C26.9797 3.76705 25.1944 5.55233 23 5.55233C20.8056 5.55233 19.0203 3.76705 19.0203 1.5727C19.0203 0.828435 18.4169 0.225046 17.6726 0.225046L12.0023 0.225045C11.2581 0.225045 10.6547 0.828435 10.6547 1.5727C10.6547 3.76713 8.86938 5.55233 6.67503 5.55233C4.48069 5.55233 2.69532 3.76713 2.69532 1.5727C2.69532 0.828434 2.09193 0.225044 1.34766 0.225044C0.603394 0.225044 3.75459e-06 0.828434 3.68952e-06 1.5727L5.8355e-07 37.1009C2.61779e-07 40.7815 2.9944 43.7759 6.67503 43.7759ZM32.65 23.9105L29.675 23.9105L29.675 14.7631L32.65 14.7631L32.65 23.9105ZM26.9797 25.2581C26.9797 27.4526 25.1944 29.2378 23 29.2378C20.8056 29.2378 19.0203 27.4526 19.0203 25.2581L19.0203 18.7708C20.1323 19.5993 21.5099 20.0904 23 20.0904C24.4902 20.0904 25.8677 19.5993 26.9797 18.7708L26.9797 25.2581ZM16.325 23.9105L13.35 23.9105L13.35 14.7631L16.325 14.7631L16.325 23.9105ZM10.6547 25.2581C10.6547 27.4526 8.86937 29.2378 6.67503 29.2378C4.48069 29.2378 2.69531 27.4526 2.69531 25.2581L2.69531 18.7712C3.80731 19.5997 5.18489 20.0905 6.67503 20.0905C8.16509 20.0905 9.54267 19.5997 10.6547 18.7713L10.6547 25.2581ZM6.67503 41.0806C4.4806 41.0806 2.69531 39.2953 2.69531 37.1009L2.69531 30.6139C3.80731 31.4423 5.18488 31.9332 6.67503 31.9332C8.16509 31.9332 9.54266 31.4423 10.6547 30.614L10.6547 37.1009C10.6547 39.2953 8.86947 41.0806 6.67503 41.0806ZM13.35 26.6058L16.325 26.6058L16.325 35.7532L13.35 35.7532L13.35 26.6058ZM23 41.0806C20.8056 41.0806 19.0203 39.2953 19.0203 37.101L19.0203 30.614C20.1323 31.4424 21.5099 31.9332 23 31.9332C24.4901 31.9332 25.8677 31.4424 26.9797 30.614L26.9797 37.1009C26.9797 39.2953 25.1944 41.0806 23 41.0806ZM29.675 26.6058L32.65 26.6058L32.65 35.7532L29.675 35.7532L29.675 26.6058ZM43.3047 37.1009C43.3047 39.2953 41.5194 41.0806 39.325 41.0806C37.1305 41.0806 35.3453 39.2953 35.3453 37.101L35.3453 30.6141C36.4573 31.4424 37.8349 31.9332 39.325 31.9332C40.815 31.9332 42.1927 31.4424 43.3047 30.614L43.3047 37.1009ZM39.325 29.2378C37.1305 29.2378 35.3453 27.4526 35.3453 25.2581L35.3453 18.7712C36.4573 19.5996 37.8349 20.0904 39.325 20.0904C40.815 20.0904 42.1927 19.5996 43.3047 18.7711L43.3047 25.258C43.3047 27.4526 41.5194 29.2378 39.325 29.2378ZM35.3453 6.92856C36.4573 7.75692 37.8349 8.24773 39.325 8.24773C40.815 8.24773 42.1927 7.75692 43.3047 6.92856L43.3047 13.4155C43.3047 15.6099 41.5194 17.3952 39.325 17.3952C37.1305 17.3952 35.3453 15.6099 35.3453 13.4155L35.3453 6.92856ZM32.65 12.0678L29.675 12.0678L29.675 2.92036L32.65 2.92036L32.65 12.0678ZM19.0203 6.92856C20.1323 7.75692 21.5099 8.24773 23 8.24773C24.4902 8.24773 25.8677 7.75692 26.9797 6.92856L26.9797 13.4155C26.9797 15.6099 25.1944 17.3952 23 17.3952C20.8056 17.3952 19.0203 15.6099 19.0203 13.4155L19.0203 6.92856ZM16.325 12.0678L13.35 12.0678L13.35 2.92036L16.325 2.92036L16.325 12.0678ZM2.69532 6.92855C3.80731 7.75692 5.18489 8.24773 6.67503 8.24773C8.16509 8.24773 9.54267 7.75692 10.6547 6.92856L10.6547 13.4155C10.6547 15.6099 8.86938 17.3952 6.67503 17.3952C4.48069 17.3952 2.69531 15.6099 2.69532 13.4155L2.69532 6.92855Z" fill="black"/>
</svg>
