<svg width="46" height="46" viewBox="0 0 46 46" fill="none" xmlns="http://www.w3.org/2000/svg">
<g clip-path="url(#clip0_14_423)">
<path d="M9.52344 32.4341C7.29414 32.4341 5.48047 34.2478 5.48047 36.4771C5.48047 38.7063 7.29414 40.52 9.52344 40.52C11.7527 40.52 13.5664 38.7063 13.5664 36.4771C13.5664 34.2478 11.7527 32.4341 9.52344 32.4341ZM9.52344 37.8247C8.78034 37.8247 8.17578 37.2201 8.17578 36.4771C8.17578 35.734 8.78034 35.1294 9.52344 35.1294C10.2665 35.1294 10.8711 35.734 10.8711 36.4771C10.8711 37.2201 10.2665 37.8247 9.52344 37.8247Z" fill="black"/>
<path d="M43.5677 27.3791C44.487 26.135 44.6564 24.4 43.8204 22.9522L38.4325 13.5302C37.5005 11.9159 35.5351 11.1793 33.7819 11.6479C34.1552 9.96991 33.4228 8.16971 31.8572 7.26579L22.5209 1.87553C21.1875 1.10557 19.5932 1.18445 18.3671 1.94282C17.6565 0.779074 16.3746 0.000488281 14.9141 0.000488281H4.04297C1.81368 0.000488281 0 1.81416 0 4.04346C0 4.97828 0 40.8814 0 41.9575C0 44.1868 1.81368 46.0005 4.04297 46.0005C5.08992 46.0005 36.8331 46.0005 41.957 46.0005C44.1863 46.0005 46 44.1868 46 41.9575V31.0864C46 29.4294 44.9976 28.0027 43.5677 27.3791ZM16.2617 41.9575C16.2617 42.7006 15.6572 43.3052 14.9141 43.3052H4.04297C3.29987 43.3052 2.69531 42.7006 2.69531 41.9575C2.69531 41.3418 2.69531 30.3301 2.69531 29.7388H16.2617V41.9575ZM16.2617 27.0435H2.69531V16.1724H16.2617V27.0435ZM16.2617 13.4771H2.69531V4.04346C2.69531 3.30036 3.29987 2.6958 4.04297 2.6958H14.9141C15.6572 2.6958 16.2617 3.30036 16.2617 4.04346V13.4771ZM18.957 5.3523L19.3318 4.70318C19.7035 4.05945 20.5296 3.83807 21.1732 4.20976L30.5095 9.60002C31.1532 9.97171 31.3745 10.7977 31.0018 11.4433L29.4447 14.15C29.4057 14.2076 29.3706 14.2674 29.3412 14.3298L18.957 32.3797V5.3523ZM18.957 37.7847L31.5551 15.8865L34.1599 14.3826C34.8203 14.0014 35.726 14.2329 36.0956 14.873L41.4835 24.295C41.8561 24.9404 41.6388 25.7679 40.9867 26.1443C40.0243 26.7014 19.9048 38.3492 18.957 38.8979V37.7847ZM43.3047 41.9575C43.3047 42.7006 42.7001 43.3052 41.957 43.3052H18.7252C18.8689 42.9 18.9495 42.4655 18.9557 42.0131L40.1575 29.7388H41.957C42.7001 29.7388 43.3047 30.3433 43.3047 31.0864V41.9575Z" fill="black"/>
</g>
<defs>
<clipPath id="clip0_14_423">
<rect width="46" height="46" fill="white" transform="translate(0 0.000488281)"/>
</clipPath>
</defs>
</svg>
