<svg width="49" height="49" viewBox="0 0 49 49" fill="none" xmlns="http://www.w3.org/2000/svg">
<g clip-path="url(#clip0_14_440)">
<path d="M48.919 39.3323L44.3334 13.3265C44.0175 11.5354 42.8238 10.0554 41.1402 9.36772L30.1982 4.89812C29.727 4.70566 29.236 4.58661 28.7413 4.53751L28.1505 1.18706C28.0129 0.406322 27.2688 -0.114874 26.4876 0.0226502C25.7068 0.160271 25.1855 0.904836 25.3232 1.68558L25.9141 5.03641C25.4727 5.24878 25.058 5.52402 24.6854 5.85955L23.4461 6.97573L23.2623 6.80901C22.8854 6.46697 22.4648 6.18714 22.0167 5.97181L22.7724 1.68558C22.9101 0.904836 22.3888 0.160271 21.608 0.0226502C20.8274 -0.115449 20.0827 0.406226 19.9451 1.18706L19.1892 5.47358C18.7018 5.5222 18.218 5.63905 17.7531 5.82701L6.71249 10.2888C5.01884 10.9732 3.81825 12.4558 3.50099 14.255L0.0804885 33.6541C-0.423481 36.5124 1.49191 39.2478 4.35016 39.7518L18.3304 42.2169L18.7594 44.6503C19.2091 47.2009 21.4354 49.0004 23.9405 49.0004C24.2428 49.0004 24.5493 48.9742 24.8571 48.92L44.6494 45.4301C47.5075 44.926 49.4229 42.1906 48.919 39.3323ZM44.1508 42.6025L24.3585 46.0924C23.7291 46.2034 23.0943 46.0627 22.5707 45.696C22.0472 45.3295 21.6978 44.7809 21.5868 44.1516L21.3392 42.7473L24.1422 43.2416C24.4511 43.2961 24.7603 43.323 25.0674 43.323C26.1374 43.323 27.1805 42.9963 28.0753 42.3697C29.2271 41.5633 29.9958 40.3566 30.2399 38.9721L33.6621 19.5636C33.978 17.7724 33.3623 15.9735 32.0155 14.7515L25.5829 8.91486L26.6065 7.99305C27.0521 7.59186 27.6295 7.38026 28.2129 7.38026C28.5171 7.38026 28.8229 7.43788 29.1123 7.55607L40.0543 12.0257C40.8196 12.3383 41.3623 13.0109 41.5058 13.8251L46.0914 39.8308C46.3206 41.1301 45.4499 42.3734 44.1508 42.6025ZM2.90783 34.1526L6.32853 14.7535C6.47275 13.9357 7.01845 13.2618 7.78828 12.9506L18.6442 8.56343L18.3331 10.3282C18.1955 11.1089 18.7167 11.8535 19.4975 11.9911C19.5818 12.006 19.6656 12.0131 19.7484 12.0131C20.4319 12.0131 21.0376 11.523 21.1604 10.8266L21.4717 9.06118L30.0863 16.8777C30.6984 17.4331 30.9783 18.2508 30.8348 19.065L27.4126 38.4735C27.3016 39.1028 26.9522 39.6513 26.4287 40.0178C25.9052 40.3844 25.2703 40.5251 24.6408 40.4142L4.84858 36.9243C3.54942 36.6952 2.67881 35.4518 2.90783 34.1526Z" fill="black"/>
<path d="M14.461 33.3866L14.2318 34.6864C14.14 35.2069 14.4876 35.7033 15.0082 35.795C15.0643 35.805 15.1202 35.8097 15.1754 35.8097C15.6311 35.8097 16.035 35.4829 16.1168 35.0187L16.3587 33.6469C17.3423 33.6438 18.281 33.3705 19.114 32.8382C20.1056 32.2046 20.8689 31.2438 21.2633 30.1327C22.0662 27.8708 21.2033 25.6285 19.0649 24.4202C18.7116 24.2206 18.3866 24.0318 18.086 23.8516L19.0421 18.4289C19.7142 18.6764 20.1011 19.0842 20.3586 19.3562C20.4319 19.4336 20.5012 19.5069 20.572 19.5723C20.9602 19.9311 21.5656 19.9073 21.9244 19.5193C22.2832 19.1312 22.2594 18.5257 21.8714 18.1669C21.8474 18.1447 21.7971 18.0917 21.7486 18.0404C21.4016 17.6738 20.6762 16.9079 19.3776 16.5266L19.5752 15.4055C19.667 14.885 19.3194 14.3887 18.7988 14.2969C18.2783 14.2052 17.782 14.5526 17.6902 15.0732L17.4727 16.3067C17.2755 16.3141 17.0716 16.3289 16.8586 16.3541C15.283 16.541 13.9389 17.6257 13.3505 19.185C12.8157 20.6024 13.0334 22.096 13.9188 23.083C14.4128 23.6337 15.058 24.1719 15.9775 24.7858L14.7934 31.5013C13.8613 31.2865 13.2931 30.9855 12.3816 30.1299C11.9963 29.7682 11.3906 29.7872 11.0288 30.1726C10.6671 30.5579 10.6861 31.1636 11.0715 31.5254C12.3121 32.6898 13.2118 33.1083 14.461 33.3866ZM19.4595 29.4925C19.086 30.5446 18.1007 31.5621 16.6997 31.713L17.7312 25.8631C17.8583 25.9363 17.9889 26.0109 18.1232 26.0868C20.0904 27.1982 19.6434 28.9746 19.4595 29.4925ZM15.3436 21.8049C14.9372 21.3518 14.8597 20.6069 15.1413 19.8607C15.4039 19.1646 16.0522 18.3773 17.084 18.2549C17.0995 18.2531 17.1145 18.2518 17.13 18.2501L16.3452 22.7007C15.9264 22.3833 15.5993 22.0898 15.3436 21.8049Z" fill="black"/>
</g>
<defs>
<clipPath id="clip0_14_440">
<rect width="49" height="49" fill="white" transform="translate(0 0.000488281)"/>
</clipPath>
</defs>
</svg>
