<svg width="50" height="42" viewBox="0 0 50 42" fill="none" xmlns="http://www.w3.org/2000/svg">
<path d="M50 5.48242C50 3.68555 48.4277 2.2207 46.4941 2.2207H44.7852V1.33203C44.7852 0.902344 44.4336 0.550781 44.0039 0.550781C43.5742 0.550781 43.2227 0.902344 43.2227 1.33203V2.2207H35.2734V1.33203C35.2734 0.902344 34.9219 0.550781 34.4922 0.550781C34.0625 0.550781 33.7109 0.902344 33.7109 1.33203V2.2207H25.7812V1.33203C25.7812 0.902344 25.4297 0.550781 25 0.550781C24.5703 0.550781 24.2188 0.902344 24.2188 1.33203V2.2207H16.2793V1.33203C16.2793 0.902344 15.9277 0.550781 15.498 0.550781C15.0684 0.550781 14.7168 0.902344 14.7168 1.33203V2.2207H6.77734V1.33203C6.77734 0.902344 6.42578 0.550781 5.99609 0.550781C5.56641 0.550781 5.21484 0.902344 5.21484 1.33203V2.2207H3.50586C1.57227 2.21094 0 3.67578 0 5.48242V32.4746V34.877C0 38.5 3.20312 41.4492 7.13867 41.4492H42.8613C46.7969 41.4492 50 38.5 50 34.877V31.8301C50 31.7812 50 31.7422 50 31.6934V5.48242ZM1.5625 31.7031V11.2246H48.4375V27.4648L40.5957 25.8535C40.3906 25.8145 40.1758 25.8535 40.0098 25.9707C39.834 26.0879 39.7168 26.2637 39.6777 26.4688L38.2715 33.5781H1.97266C1.70898 33.002 1.5625 32.3672 1.5625 31.7031ZM46.9824 28.7637L40.0098 32.8359L41.0547 27.5527L46.9824 28.7637ZM38.9258 35.1504C39.0625 35.1504 39.1992 35.1113 39.3164 35.043L48.4375 29.7207V31.7031C48.4375 34.4668 45.9375 36.7227 42.8613 36.7227H7.13867C5.54688 36.7227 4.11133 36.1172 3.0957 35.1504H38.9258ZM3.50586 3.77344H5.21484V4.67188C4.44336 4.98438 3.90625 5.73633 3.90625 6.61523C3.90625 7.76758 4.84375 8.70508 5.99609 8.70508C7.14844 8.70508 8.08594 7.76758 8.08594 6.61523C8.08594 5.73633 7.53906 4.98438 6.77734 4.68164V3.7832H14.7168V4.68164C13.9551 4.99414 13.4082 5.74609 13.4082 6.61523C13.4082 7.76758 14.3457 8.70508 15.498 8.70508C16.6504 8.70508 17.5879 7.76758 17.5879 6.61523C17.5879 5.73633 17.041 4.98438 16.2793 4.68164V3.7832H24.2188V4.68164C23.457 4.99414 22.9102 5.74609 22.9102 6.61523C22.9102 7.76758 23.8477 8.70508 25 8.70508C26.1523 8.70508 27.0898 7.76758 27.0898 6.61523C27.0898 5.73633 26.543 4.98438 25.7812 4.68164V3.7832H33.7207V4.68164C32.959 4.99414 32.4121 5.74609 32.4121 6.61523C32.4121 7.76758 33.3496 8.70508 34.502 8.70508C35.6543 8.70508 36.5918 7.76758 36.5918 6.61523C36.5918 5.73633 36.0449 4.98438 35.2832 4.68164V3.7832H43.2324V4.68164C42.4707 4.99414 41.9238 5.74609 41.9238 6.61523C41.9238 7.76758 42.8613 8.70508 44.0137 8.70508C45.166 8.70508 46.1035 7.76758 46.1035 6.61523C46.1035 5.73633 45.5566 4.98438 44.7949 4.68164V3.7832H46.5039C47.5781 3.7832 48.4473 4.54492 48.4473 5.49219V9.68164H1.5625V5.48242C1.5625 4.54492 2.43164 3.77344 3.50586 3.77344ZM5.99609 6.08789C6.28906 6.08789 6.52344 6.32227 6.52344 6.61523C6.52344 6.9082 6.28906 7.14258 5.99609 7.14258C5.70312 7.14258 5.46875 6.9082 5.46875 6.61523C5.46875 6.32227 5.70312 6.08789 5.99609 6.08789ZM15.498 6.08789C15.791 6.08789 16.0254 6.32227 16.0254 6.61523C16.0254 6.9082 15.791 7.14258 15.498 7.14258C15.2051 7.14258 14.9707 6.9082 14.9707 6.61523C14.9707 6.32227 15.2051 6.08789 15.498 6.08789ZM25 6.08789C25.293 6.08789 25.5273 6.32227 25.5273 6.61523C25.5273 6.9082 25.293 7.14258 25 7.14258C24.707 7.14258 24.4727 6.9082 24.4727 6.61523C24.4727 6.32227 24.707 6.08789 25 6.08789ZM34.502 6.08789C34.7949 6.08789 35.0293 6.32227 35.0293 6.61523C35.0293 6.9082 34.7949 7.14258 34.502 7.14258C34.209 7.14258 33.9746 6.9082 33.9746 6.61523C33.9746 6.32227 34.209 6.08789 34.502 6.08789ZM44.0137 6.08789C44.3066 6.08789 44.541 6.32227 44.541 6.61523C44.541 6.9082 44.3066 7.14258 44.0137 7.14258C43.7207 7.14258 43.4863 6.9082 43.4863 6.61523C43.4766 6.32227 43.7207 6.08789 44.0137 6.08789ZM42.8613 39.8965H7.13867C4.46289 39.8965 2.22656 38.1973 1.68945 35.9414C2.99805 37.3672 4.96094 38.2754 7.13867 38.2754H42.8613C45.0391 38.2754 47.002 37.3672 48.3105 35.9414C47.7734 38.1973 45.5371 39.8965 42.8613 39.8965ZM28.3887 28.7734C28.3887 29.2031 28.0371 29.5547 27.6074 29.5547H22.3926C21.9629 29.5547 21.6113 29.2031 21.6113 28.7734C21.6113 28.3438 21.9629 27.9922 22.3926 27.9922H24.2188V18.3047L23.2324 19.5742C22.9688 19.916 22.4805 19.9746 22.1387 19.7109C21.7969 19.4473 21.7383 18.959 22.002 18.6172L24.3848 15.5605C24.5898 15.2969 24.9414 15.1992 25.2539 15.3066C25.5664 15.4141 25.7812 15.707 25.7812 16.0488V28.0117H27.6074C28.0371 27.9922 28.3887 28.3438 28.3887 28.7734Z" fill="#E22C58"/>
</svg>
