<svg width="57" height="57" viewBox="0 0 57 57" fill="none" xmlns="http://www.w3.org/2000/svg">
<path d="M52.25 0.950195H12.35C9.72776 0.953442 7.60325 3.07795 7.6 5.70019V42.7502H0.95C0.425366 42.7502 0 43.1756 0 43.7002V45.6002C0.00324708 48.2224 2.12776 50.3469 4.75 50.3502H34.2227V55.1002C34.2227 55.4602 34.4259 55.789 34.7478 55.95C35.0698 56.111 35.4548 56.0762 35.7428 55.86L38.9727 53.4377L42.2026 55.86C42.3668 55.9839 42.5672 56.0507 42.7727 56.0502C42.9202 56.0516 43.0659 56.0191 43.1986 55.9551C43.5219 55.7932 43.725 55.4615 43.7227 55.1002V50.3502H44.65C47.2722 50.3469 49.3968 48.2224 49.4 45.6002V8.55019H56.05C56.5746 8.55019 57 8.12483 57 7.60019V5.70019C56.9968 3.07795 54.8722 0.953442 52.25 0.950195ZM34.2227 48.4502H4.75C3.1761 48.4502 1.9 47.1741 1.9 45.6002V44.6502H34.2227V48.4502ZM41.8227 53.2002L39.5428 51.4904C39.2051 51.2366 38.7408 51.2366 38.4026 51.4904L36.1227 53.2002V42.5897C36.3064 42.6041 36.491 42.6008 36.6738 42.579C37.2221 43.2864 38.0668 43.7002 38.9616 43.7002C39.8564 43.7002 40.7006 43.2864 41.2489 42.579C41.4382 42.6018 41.6293 42.6055 41.819 42.5897L41.8227 53.2002ZM43.0446 37.9812C42.7913 38.0712 42.5876 38.2646 42.4851 38.5128C42.3822 38.7614 42.3891 39.0416 42.5051 39.2846C42.6846 39.6613 42.6085 40.1103 42.3144 40.4063C42.0199 40.7022 41.5713 40.7811 41.1937 40.6034C40.9511 40.4874 40.6705 40.48 40.4218 40.5825C40.1728 40.6855 39.9798 40.8892 39.8893 41.1429C39.7506 41.5363 39.3786 41.7997 38.9616 41.7997C38.5441 41.7997 38.1721 41.5363 38.0334 41.1429C37.9434 40.8892 37.75 40.6855 37.5013 40.5825C37.2522 40.48 36.9716 40.4874 36.729 40.6034C36.3514 40.7811 35.9029 40.7022 35.6088 40.4063C35.3142 40.1103 35.2381 39.6613 35.4181 39.2846C35.5336 39.042 35.541 38.7614 35.4381 38.5132C35.3355 38.2646 35.1324 38.0716 34.8791 37.9812C34.4853 37.8411 34.2218 37.4681 34.2218 37.0502C34.2218 36.6322 34.4853 36.2593 34.8791 36.1192C35.1324 36.0288 35.3351 35.8358 35.4376 35.5876C35.5406 35.3395 35.5332 35.0593 35.4181 34.8167C35.2372 34.44 35.3133 33.9905 35.6078 33.6941C35.9019 33.3982 36.351 33.3188 36.729 33.497C36.9716 33.6129 37.2522 33.6204 37.5013 33.5178C37.75 33.4149 37.9434 33.2112 38.0334 32.9575C38.1721 32.5641 38.5441 32.3007 38.9616 32.3007C39.3786 32.3007 39.7506 32.5641 39.8893 32.9575C39.9798 33.2112 40.1728 33.4149 40.4218 33.5178C40.6705 33.6204 40.9511 33.6129 41.1937 33.497C41.5713 33.3193 42.0199 33.3982 42.3144 33.6941C42.6085 33.9901 42.6846 34.4391 42.5051 34.8157C42.3891 35.0588 42.3822 35.339 42.4851 35.5876C42.5876 35.8358 42.7913 36.0292 43.0446 36.1192C43.4375 36.2602 43.7 36.6327 43.7 37.0502C43.7 37.4677 43.4375 37.8402 43.0446 37.9812ZM48.3767 2.96895C48.3229 3.04502 48.2751 3.12573 48.226 3.20552C48.1244 3.36787 48.0334 3.53579 47.9523 3.70881C47.9096 3.80391 47.8697 3.89158 47.8326 3.98435C47.7621 4.17083 47.7027 4.36101 47.6559 4.55444C47.6341 4.64304 47.6062 4.72839 47.5895 4.81838C47.532 5.10923 47.5023 5.40425 47.5 5.70019V45.6002C47.5 47.1741 46.2239 48.4502 44.65 48.4502C44.3332 48.4442 44.0201 48.3853 43.7227 48.2753V41.6671C44.3137 41.0455 44.5925 40.1906 44.483 39.3398C45.189 38.7902 45.6019 37.945 45.6019 37.0502C45.6019 36.1554 45.189 35.3102 44.483 34.7605C44.5953 33.8736 44.2914 32.9844 43.6601 32.3508C43.0288 31.7176 42.1405 31.4114 41.2526 31.5214C40.7043 30.814 39.8601 30.4002 38.9653 30.4002C38.0705 30.4002 37.2258 30.814 36.6775 31.5214C35.7901 31.4119 34.9018 31.718 34.2705 32.3512C33.6396 32.9844 33.3358 33.8736 33.4476 34.7605C32.7416 35.3102 32.3283 36.1554 32.3283 37.0502C32.3283 37.945 32.7416 38.7902 33.4476 39.3398C33.3354 40.2026 33.6229 41.0696 34.2283 41.6949V42.7502H9.5V5.70019C9.5 4.12629 10.7761 2.8502 12.35 2.8502H48.45C48.4236 2.8873 48.4036 2.92998 48.3767 2.96895ZM55.1 6.6502H49.4V5.70019C49.4 4.12629 50.6761 2.8502 52.25 2.8502C53.8239 2.8502 55.1 4.12629 55.1 5.70019V6.6502Z" fill="#DD255D"/>
<path d="M31.3496 8.5498H35.1496V10.4498H31.3496V8.5498Z" fill="#DD255D"/>
<path d="M19 13.2998H38V15.1998H19V13.2998Z" fill="#DD255D"/>
<path d="M14.25 19H19V20.9H14.25V19Z" fill="#DD255D"/>
<path d="M14.25 23.75H24.7V25.65H14.25V23.75Z" fill="#DD255D"/>
<path d="M20.9004 19H42.7504V20.9H20.9004V19Z" fill="#DD255D"/>
<path d="M26.5996 23.75H42.7496V25.65H26.5996V23.75Z" fill="#DD255D"/>
<path d="M14.25 28.5H33.25V30.4H14.25V28.5Z" fill="#DD255D"/>
<path d="M14.25 33.25H30.4V35.15H14.25V33.25Z" fill="#DD255D"/>
</svg>
