<svg width="50" height="50" viewBox="0 0 50 50" fill="none" xmlns="http://www.w3.org/2000/svg">
<path d="M46.6667 13.3333H31.6667V4.16667C31.6653 3.062 31.2259 2.00296 30.4448 1.22185C29.6637 0.440735 28.6047 0.00132321 27.5 0L4.16667 0C3.062 0.00132321 2.00296 0.440735 1.22185 1.22185C0.440735 2.00296 0.00132321 3.062 0 4.16667L0 45.8333C0.00132321 46.938 0.440735 47.997 1.22185 48.7781C2.00296 49.5593 3.062 49.9987 4.16667 50H27.5C28.6047 49.9987 29.6637 49.5593 30.4448 48.7781C31.2259 47.997 31.6653 46.938 31.6667 45.8333V41.6667H46.6667C47.5507 41.6667 48.3986 41.3155 49.0237 40.6904C49.6488 40.0652 50 39.2174 50 38.3333V16.6667C50 15.7826 49.6488 14.9348 49.0237 14.3096C48.3986 13.6845 47.5507 13.3333 46.6667 13.3333ZM48.3333 16.6667V38.3333C48.3312 38.4794 48.3097 38.6246 48.2692 38.765L36.9008 27.5L48.2692 16.235C48.3096 16.3754 48.3312 16.5206 48.3333 16.6667ZM47.0875 15.0608L32.2542 29.7567C32.0968 29.9109 31.8853 29.9973 31.665 29.9973C31.4447 29.9973 31.2332 29.9109 31.0758 29.7567L16.25 15.0608C16.3857 15.0227 16.5257 15.0022 16.6667 15H46.6667C46.809 15.0019 46.9505 15.0223 47.0875 15.0608ZM10 8.33333H21.6667C22.3297 8.33333 22.9656 8.06994 23.4344 7.6011C23.9033 7.13226 24.1667 6.49637 24.1667 5.83333V5H26.6667V13.3333H16.6667C15.7826 13.3333 14.9348 13.6845 14.3096 14.3096C13.6845 14.9348 13.3333 15.7826 13.3333 16.6667V38.3333C13.3333 39.2174 13.6845 40.0652 14.3096 40.6904C14.9348 41.3155 15.7826 41.6667 16.6667 41.6667H26.6667V45H5V5H7.5V5.83333C7.5 6.49637 7.76339 7.13226 8.23223 7.6011C8.70107 8.06994 9.33696 8.33333 10 8.33333ZM15.0642 38.765C15.0237 38.6246 15.0021 38.4794 15 38.3333V16.6667C15.0022 16.5206 15.0237 16.3754 15.0642 16.235L26.4317 27.5L15.0642 38.765ZM30 45.8333C30 46.4964 29.7366 47.1323 29.2678 47.6011C28.7989 48.0699 28.163 48.3333 27.5 48.3333H4.16667C3.50363 48.3333 2.86774 48.0699 2.3989 47.6011C1.93006 47.1323 1.66667 46.4964 1.66667 45.8333V4.16667C1.66667 3.50363 1.93006 2.86774 2.3989 2.3989C2.86774 1.93006 3.50363 1.66667 4.16667 1.66667H27.5C28.163 1.66667 28.7989 1.93006 29.2678 2.3989C29.7366 2.86774 30 3.50363 30 4.16667V13.3333H28.3333V5C28.3333 4.55797 28.1577 4.13405 27.8452 3.82149C27.5326 3.50893 27.1087 3.33333 26.6667 3.33333H24.1667C23.7246 3.33333 23.3007 3.50893 22.9882 3.82149C22.6756 4.13405 22.5 4.55797 22.5 5V5.83333C22.5 6.05435 22.4122 6.26631 22.2559 6.42259C22.0996 6.57887 21.8877 6.66667 21.6667 6.66667H10C9.77899 6.66667 9.56702 6.57887 9.41074 6.42259C9.25446 6.26631 9.16667 6.05435 9.16667 5.83333V5C9.16667 4.55797 8.99107 4.13405 8.67851 3.82149C8.36595 3.50893 7.94203 3.33333 7.5 3.33333H5C4.55797 3.33333 4.13405 3.50893 3.82149 3.82149C3.50893 4.13405 3.33333 4.55797 3.33333 5V45C3.33333 45.442 3.50893 45.866 3.82149 46.1785C4.13405 46.4911 4.55797 46.6667 5 46.6667H26.6667C27.1087 46.6667 27.5326 46.4911 27.8452 46.1785C28.1577 45.866 28.3333 45.442 28.3333 45V41.6667H30V45.8333ZM16.6667 40C16.5257 39.9978 16.3857 39.9773 16.25 39.9392L27.6158 28.6742L29.9058 30.9433C30.3761 31.4044 31.0085 31.6627 31.6671 31.6627C32.3257 31.6627 32.958 31.4044 33.4283 30.9433L35.7175 28.675L47.0875 39.9392C46.9505 39.9777 46.809 39.9981 46.6667 40H16.6667Z" fill="#DD255D"/>
<path d="M12.5003 4.99967H13.3337C13.5547 4.99967 13.7666 4.91188 13.9229 4.7556C14.0792 4.59932 14.167 4.38735 14.167 4.16634C14.167 3.94533 14.0792 3.73337 13.9229 3.57709C13.7666 3.42081 13.5547 3.33301 13.3337 3.33301H12.5003C12.2793 3.33301 12.0674 3.42081 11.9111 3.57709C11.7548 3.73337 11.667 3.94533 11.667 4.16634C11.667 4.38735 11.7548 4.59932 11.9111 4.7556C12.0674 4.91188 12.2793 4.99967 12.5003 4.99967Z" fill="#DD255D"/>
<path d="M16.6663 4.99967H19.1663C19.3874 4.99967 19.5993 4.91188 19.7556 4.7556C19.9119 4.59932 19.9997 4.38735 19.9997 4.16634C19.9997 3.94533 19.9119 3.73337 19.7556 3.57709C19.5993 3.42081 19.3874 3.33301 19.1663 3.33301H16.6663C16.4453 3.33301 16.2334 3.42081 16.0771 3.57709C15.9208 3.73337 15.833 3.94533 15.833 4.16634C15.833 4.38735 15.9208 4.59932 16.0771 4.7556C16.2334 4.91188 16.4453 4.99967 16.6663 4.99967Z" fill="#DD255D"/>
<path d="M6.91098 13.0892C7.06725 13.2454 7.27918 13.3332 7.50015 13.3332C7.72112 13.3332 7.93304 13.2454 8.08931 13.0892L9.75598 11.4225C9.90778 11.2653 9.99177 11.0548 9.98988 10.8363C9.98798 10.6178 9.90034 10.4088 9.74583 10.2543C9.59132 10.0998 9.38231 10.0122 9.16382 10.0103C8.94532 10.0084 8.73482 10.0924 8.57765 10.2442L6.91098 11.9108C6.75476 12.0671 6.66699 12.279 6.66699 12.5C6.66699 12.721 6.75476 12.9329 6.91098 13.0892Z" fill="#DD255D"/>
<path d="M6.91098 18.0892C7.06725 18.2454 7.27918 18.3332 7.50015 18.3332C7.72112 18.3332 7.93304 18.2454 8.08931 18.0892L14.756 11.4225C14.9078 11.2653 14.9918 11.0548 14.9899 10.8363C14.988 10.6178 14.9003 10.4088 14.7458 10.2543C14.5913 10.0998 14.3823 10.0122 14.1638 10.0103C13.9453 10.0084 13.7348 10.0924 13.5776 10.2442L6.91098 16.9108C6.75476 17.0671 6.66699 17.279 6.66699 17.5C6.66699 17.721 6.75476 17.9329 6.91098 18.0892Z" fill="#DD255D"/>
</svg>
