<svg width="50" height="45" viewBox="0 0 50 45" fill="none" xmlns="http://www.w3.org/2000/svg">
<path d="M47.0703 16.9922H40.918V2.92969C40.918 1.31426 39.6037 0 37.9883 0H12.0117C10.3963 0 9.08203 1.31426 9.08203 2.92969V11.7188H2.92969C1.31426 11.7188 0 13.033 0 14.6484V32.6172C0 34.2326 1.31426 35.5469 2.92969 35.5469H11.6072L15.2274 39.1671C15.4182 39.3578 15.6681 39.4531 15.918 39.4531C16.1679 39.4531 16.4179 39.3578 16.6085 39.1671L18.1641 37.6115V37.8906C18.1641 39.5061 19.4783 40.8203 21.0938 40.8203H29.7713L33.3915 44.4405C33.5822 44.6313 33.8321 44.7266 34.082 44.7266C34.3319 44.7266 34.5819 44.6313 34.7726 44.4405L38.3928 40.8203H47.0703C48.6857 40.8203 50 39.5061 50 37.8906V19.9219C50 18.3064 48.6857 16.9922 47.0703 16.9922ZM11.0352 2.92969C11.0352 2.39121 11.4732 1.95312 12.0117 1.95312H37.9883C38.5268 1.95312 38.9648 2.39121 38.9648 2.92969V20.8984C38.9648 21.4369 38.5268 21.875 37.9883 21.875H28.9062C28.6473 21.875 28.3988 21.9779 28.2157 22.161L25 25.3768L21.7843 22.161C21.6012 21.9779 21.3527 21.875 21.0938 21.875H12.0117C11.4732 21.875 11.0352 21.4369 11.0352 20.8984V2.92969ZM19.1337 33.8798L15.918 37.0955L12.7022 33.8798C12.5191 33.6967 12.2707 33.5938 12.0117 33.5938H2.92969C2.39121 33.5938 1.95312 33.1557 1.95312 32.6172V14.6484C1.95312 14.11 2.39121 13.6719 2.92969 13.6719H9.08203V20.8984C9.08203 22.5139 10.3963 23.8281 12.0117 23.8281H20.6893L24.3095 27.4483C24.5002 27.6391 24.7501 27.7344 25 27.7344C25.2499 27.7344 25.4999 27.6391 25.6905 27.4483L29.3107 23.8281H29.8828V32.6172C29.8828 33.1557 29.4447 33.5938 28.9062 33.5938H19.8242C19.5652 33.5938 19.3168 33.6967 19.1337 33.8798ZM48.0469 37.8906C48.0469 38.4291 47.6088 38.8672 47.0703 38.8672H37.9883C37.7293 38.8672 37.4809 38.9701 37.2978 39.1532L34.082 42.3689L30.8663 39.1532C30.6832 38.9701 30.4348 38.8672 30.1758 38.8672H21.0938C20.5553 38.8672 20.1172 38.4291 20.1172 37.8906V35.6584L20.2287 35.5469H28.9062C30.5217 35.5469 31.8359 34.2326 31.8359 32.6172V23.8281H37.9883C39.6037 23.8281 40.918 22.5139 40.918 20.8984V18.9453H47.0703C47.6088 18.9453 48.0469 19.3834 48.0469 19.9219V37.8906Z" fill="#DD255D"/>
<path d="M34.0822 5.46875H15.9326C15.3933 5.46875 14.9561 5.90596 14.9561 6.44531C14.9561 6.98467 15.3933 7.42188 15.9326 7.42188H34.0822C34.6216 7.42188 35.0588 6.98467 35.0588 6.44531C35.0588 5.90596 34.6216 5.46875 34.0822 5.46875Z" fill="#DD255D"/>
<path d="M34.7725 11.2236C34.5908 11.042 34.3389 10.9375 34.082 10.9375C33.8252 10.9375 33.5732 11.042 33.3916 11.2236C33.21 11.4053 33.1055 11.6572 33.1055 11.9141C33.1055 12.1709 33.21 12.4229 33.3916 12.6045C33.5732 12.7861 33.8252 12.8906 34.082 12.8906C34.3389 12.8906 34.5908 12.7861 34.7725 12.6045C34.9541 12.4229 35.0586 12.1709 35.0586 11.9141C35.0586 11.6572 34.9541 11.4053 34.7725 11.2236Z" fill="#DD255D"/>
<path d="M29.2331 10.9375H15.9326C15.3933 10.9375 14.9561 11.3747 14.9561 11.9141C14.9561 12.4534 15.3933 12.8906 15.9326 12.8906H29.2331C29.7725 12.8906 30.2097 12.4534 30.2097 11.9141C30.2097 11.3747 29.7725 10.9375 29.2331 10.9375Z" fill="#DD255D"/>
<path d="M34.0821 16.4062H20.7101C20.1707 16.4062 19.7335 16.8435 19.7335 17.3828C19.7335 17.9222 20.1707 18.3594 20.7101 18.3594H34.0821C34.6214 18.3594 35.0586 17.9222 35.0586 17.3828C35.0586 16.8435 34.6214 16.4062 34.0821 16.4062Z" fill="#DD255D"/>
<path d="M15.9997 16.4062H15.918C15.3786 16.4062 14.9414 16.8435 14.9414 17.3828C14.9414 17.9222 15.3786 18.3594 15.918 18.3594H15.9997C16.5391 18.3594 16.9763 17.9222 16.9763 17.3828C16.9763 16.8435 16.5391 16.4062 15.9997 16.4062Z" fill="#DD255D"/>
</svg>
