<svg width="52" height="48" viewBox="0 0 52 48" fill="none" xmlns="http://www.w3.org/2000/svg">
<path d="M27.4002 15.8875H8.42978C7.99768 15.8875 7.64727 16.2378 7.64727 16.67C7.64727 17.1022 7.99758 17.4525 8.42978 17.4525H27.4002C27.8324 17.4525 28.1827 17.1022 28.1827 16.67C28.1827 16.2378 27.8324 15.8875 27.4002 15.8875Z" fill="#DD255D" stroke="#DD255D" stroke-width="0.1"/>
<path d="M27.4002 20.6927H8.42978C7.99768 20.6927 7.64727 21.043 7.64727 21.4752C7.64727 21.9074 7.99758 22.2577 8.42978 22.2577H27.4002C27.8324 22.2577 28.1827 21.9074 28.1827 21.4752C28.1827 21.043 27.8324 20.6927 27.4002 20.6927Z" fill="#DD255D" stroke="#DD255D" stroke-width="0.1"/>
<path d="M27.4002 25.4974H8.42978C7.99768 25.4974 7.64727 25.8477 7.64727 26.2799C7.64727 26.7121 7.99758 27.0624 8.42978 27.0624H27.4002C27.8324 27.0624 28.1827 26.7121 28.1827 26.2799C28.1827 25.8477 27.8324 25.4974 27.4002 25.4974Z" fill="#DD255D" stroke="#DD255D" stroke-width="0.1"/>
<path d="M34.8806 14.9875L41.9917 2.91155C43.1063 1.01851 45.5532 0.385491 47.4463 1.50018L48.2051 1.94696C50.0566 3.03736 50.7015 5.4016 49.6861 7.27605C51.1519 8.67601 51.4888 10.936 50.4396 12.718L50.3965 12.6927L50.4396 12.718L45.5539 21.0146C45.3344 21.3872 44.8547 21.5109 44.4825 21.2918L44.5079 21.2487L44.4825 21.2918C44.1102 21.0725 43.986 20.5927 44.2053 20.2204L49.0911 11.9238C49.7034 10.884 49.5854 9.59305 48.86 8.68636L41.7951 20.6836C41.4992 21.1859 40.9681 21.4656 40.4239 21.4656C40.2667 21.4656 40.1084 21.4423 39.9543 21.3943L38.1607 24.44C37.9413 24.8123 37.4617 24.9365 37.0893 24.7172C36.717 24.4979 36.5929 24.0181 36.8122 23.6458L38.5844 20.6362L35.7688 18.978L26.3572 34.96C26.3273 35.0109 26.3443 35.0766 26.395 35.1065L29.0516 36.6711L29.0262 36.7141L29.0517 36.6711C29.0884 36.6927 29.1358 36.6809 29.1578 36.6438L34.8806 14.9875ZM34.8806 14.9875V11.5645C34.8806 11.3664 34.8039 11.1652 34.6542 11.0139C34.6535 11.0131 34.6526 11.0121 34.6515 11.011L24.9806 1.34015C24.8392 1.19866 24.6367 1.11094 24.4272 1.11094H19.632C19.1999 1.11094 18.8495 1.46125 18.8495 1.89346C18.8495 2.32567 19.1998 2.67598 19.632 2.67598H23.6447V10.4382C23.6447 11.4907 24.501 12.3469 25.5535 12.3469H33.3156V20.0599L27.2845 30.3015H8.42997C7.99787 30.3015 7.64746 30.6519 7.64746 31.0841C7.64746 31.5162 7.99777 31.8666 8.42997 31.8666H26.3627C25.9022 32.6484 25.5973 33.1663 25.1631 33.9037L24.9541 34.2588C24.7421 34.6188 24.6829 35.0402 24.7876 35.4446C24.8463 35.6718 24.9539 35.8777 25.0998 36.0528L23.6857 38.4541C23.1248 39.4066 23.4435 40.6376 24.3958 41.1985L24.6687 41.3593L24.6941 41.3162L24.6688 41.3593C25.6201 41.9194 26.8525 41.6013 27.4133 40.6491L28.8232 38.2548C29.0602 38.3031 29.2918 38.2935 29.5133 38.2362C29.911 38.1332 30.2452 37.8814 30.4537 37.5273L33.3155 32.6677V45.1068C33.3155 45.2926 33.1575 45.4505 32.9718 45.4505H2.85869C2.67293 45.4505 2.51504 45.2926 2.51504 45.1068V3.65967C2.51504 3.11727 2.95632 2.67598 3.49873 2.67598H16.2137C16.6458 2.67598 16.9962 2.32567 16.9962 1.89346C16.9962 1.46126 16.6459 1.11094 16.2137 1.11094L3.49873 1.11094C2.09328 1.11104 0.95 2.25432 0.95 3.65967V45.1068C0.95 46.1593 1.80627 47.0155 2.85869 47.0155H32.9717C34.0242 47.0155 34.8804 46.1593 34.8804 45.1068V30.0103L36.4239 27.3893C36.6432 27.017 36.5191 26.5372 36.1467 26.3179L36.1214 26.361L36.1467 26.3179C35.7745 26.0989 35.2948 26.2228 35.0754 26.5951L35.1184 26.6205L35.0753 26.5951L29.1578 36.6438L34.8806 14.9875ZM34.6569 11.0173L34.6562 11.0164L34.6573 11.0178L34.6569 11.0173ZM25.5534 10.7818H25.5454C25.363 10.7774 25.2096 10.6214 25.2096 10.4383V3.78263L32.2089 10.7818H25.5534ZM35.5077 17.0078L35.5076 17.0076V17.0068L35.5079 17.0063L43.3402 3.70565C44.0172 2.55601 45.5033 2.17204 46.6521 2.84865L47.4109 3.29553C48.5604 3.97224 48.9447 5.45819 48.2679 6.60754L40.4463 19.8896C40.4398 19.9005 40.4254 19.9043 40.4143 19.8979L35.5087 17.009C35.5086 17.009 35.5086 17.009 35.5086 17.009C35.5083 17.0088 35.508 17.0086 35.5078 17.0085C35.5078 17.0083 35.5077 17.0081 35.5077 17.0078ZM25.0343 39.2483L26.4014 36.9269L27.4318 37.5338L26.0647 39.8552C25.9442 40.0599 25.6679 40.1315 25.4628 40.0109L25.1899 39.8502C24.9851 39.7295 24.9136 39.4532 25.0343 39.2483Z" fill="#DD255D" stroke="#DD255D" stroke-width="0.1"/>
<path d="M20.4 36.8958L20.3695 36.9354L20.4 36.8958C19.9893 36.5794 19.4051 36.5941 19.0112 36.9306L17.9371 37.8473L15.6009 35.6496C15.1329 35.2093 14.4114 35.192 13.9226 35.6089L13.9226 35.6089L10.7656 38.3025C10.4369 38.583 10.3978 39.0769 10.6783 39.4057C10.9588 39.7346 11.4526 39.7734 11.7814 39.493L11.7814 39.493L14.729 36.978L17.0424 39.1542C17.5234 39.6069 18.265 39.6247 18.7674 39.1961L18.7674 39.1961L19.7419 38.3643L21.2389 39.5176L21.2389 39.5176C21.5815 39.7814 22.0727 39.7174 22.3364 39.3753L22.3364 39.3753C22.6 39.0329 22.5363 38.5415 22.194 38.2778L22.1635 38.3174L22.194 38.2778L20.4 36.8958Z" fill="#DD255D" stroke="#DD255D" stroke-width="0.1"/>
</svg>
