<svg width="50" height="50" viewBox="0 0 50 50" fill="none" xmlns="http://www.w3.org/2000/svg">
<path d="M13.4916 21.7139L13.4916 21.7139C13.3287 21.551 13.2348 21.3245 13.2348 21.0942C13.2348 20.864 13.3287 20.6374 13.4916 20.4745C13.6546 20.3115 13.881 20.2177 14.1113 20.2177C14.3416 20.2177 14.5681 20.3116 14.7311 20.4745C14.894 20.6374 14.9879 20.864 14.9879 21.0942C14.9879 21.3245 14.894 21.551 14.7311 21.7139L14.731 21.7139C14.5681 21.8769 14.3416 21.9708 14.1113 21.9708C13.8811 21.9708 13.6545 21.8768 13.4916 21.7139Z" fill="#DD255D" stroke="white" stroke-width="0.2"/>
<mask id="path-2-inside-1_14_578" fill="white">
<path d="M47.0703 0H8.20288C6.58744 0 5.27318 1.31427 5.27318 2.9297V19.1407C5.27318 20.7562 6.58744 22.0704 8.20288 22.0704H9.9607C10.5001 22.0704 10.9373 21.6331 10.9373 21.0939C10.9373 20.5546 10.5001 20.1173 9.9607 20.1173H8.20288C7.6644 20.1173 7.22631 19.6792 7.22631 19.1407V2.9297C7.22631 2.39122 7.6644 1.95314 8.20288 1.95314H47.0703C47.6088 1.95314 48.0469 2.39122 48.0469 2.9297V19.1407C48.0469 19.6792 47.6088 20.1173 47.0703 20.1173H40.5383C40.2793 20.1173 40.0309 20.2202 39.8478 20.4033L36.6321 23.6191L33.4163 20.4033C33.2332 20.2202 32.9848 20.1173 32.7258 20.1173H25.11C25.0382 19.9329 24.9571 19.751 24.8652 19.5725C24.166 18.214 22.9757 17.2211 21.514 16.7767L20.1021 16.3474C19.605 16.196 19.0765 16.4608 18.8997 16.9494L16.6812 23.0812C16.0658 24.7819 14.8521 26.1948 13.2638 27.0597L11.1812 28.1937C10.6694 27.5724 9.89449 27.1756 9.02857 27.1756H2.7883C1.25079 27.1756 2.28691e-08 28.4265 2.28691e-08 29.964V47.2118C-0.000195291 48.7494 1.25069 50.0003 2.7882 50.0003H9.02847C10.0005 50.0003 10.8575 49.5 11.3567 48.7436L12.3532 49.1345C13.8182 49.7092 15.3592 50.0005 16.9331 50.0005H30.1097C32.0868 50.0005 33.6952 48.3921 33.6952 46.415C33.6952 45.7606 33.5182 45.1471 33.2106 44.6185C34.6651 44.1614 35.7233 42.8006 35.7233 41.1972C35.7233 40.5262 35.5375 39.8979 35.2154 39.3603C36.608 38.8677 37.6086 37.5385 37.6086 35.9793C37.6086 34.3553 36.5229 32.9808 35.0395 32.5415C35.3411 32.0165 35.5146 31.409 35.5146 30.7613C35.5146 28.7843 33.9062 27.1758 31.9291 27.1758H24.0982L25.1933 23.9245C25.398 23.3166 25.4949 22.6916 25.4882 22.0705H32.3213L35.9415 25.6908C36.1322 25.8814 36.3821 25.9768 36.6321 25.9768C36.882 25.9768 37.132 25.8814 37.3226 25.6908L40.9429 22.0704H47.0703C48.6857 22.0704 50 20.7562 50 19.1407V2.9297C50 1.31427 48.6857 0 47.0703 0ZM9.86373 47.2119C9.86363 47.6724 9.48902 48.0472 9.02847 48.0472H2.7882C2.32765 48.0472 1.95304 47.6724 1.95304 47.2119V29.9641C1.95304 29.5036 2.32765 29.1289 2.7882 29.1289H4.93177V41.1525C4.93177 41.6917 5.36898 42.1291 5.90834 42.1291C6.44769 42.1291 6.8849 41.6917 6.8849 41.1525V29.1289H9.02847C9.39322 29.1289 9.70328 29.3643 9.81685 29.6909C9.82496 29.7382 9.83668 29.785 9.85211 29.8314C9.85904 29.8748 9.86373 29.9188 9.86373 29.9641V47.2119ZM31.9292 29.1288V29.1289C32.8293 29.1289 33.5615 29.8611 33.5615 30.7612C33.5615 31.6613 32.8293 32.3936 31.9292 32.3936H26.6312C26.0919 32.3936 25.6546 32.831 25.6546 33.3702C25.6546 33.9095 26.0919 34.3468 26.6312 34.3468L34.0232 34.347C34.9233 34.347 35.6556 35.0792 35.6556 35.9793C35.6556 36.8794 34.9233 37.6117 34.0232 37.6117H26.6312C26.0919 37.6117 25.6546 38.049 25.6546 38.5883C25.6546 39.1276 26.0919 39.5649 26.6312 39.5649H32.1379C33.038 39.5649 33.7702 40.2971 33.7702 41.1972C33.7702 42.0973 33.038 42.8295 32.1379 42.8295H26.6312C26.0919 42.8295 25.6546 43.2669 25.6546 43.8061C25.6546 44.3454 26.0919 44.7827 26.6312 44.7827H30.1098C31.0099 44.7827 31.7422 45.515 31.7422 46.4151C31.7422 47.3152 31.0099 48.0474 30.1098 48.0474H16.9331C15.6043 48.0474 14.3033 47.8013 13.0663 47.3163L11.8168 46.8262V30.0716L14.1977 28.7751C16.2057 27.6817 17.7398 25.8957 18.5176 23.7457L20.4208 18.4858L20.9458 18.6453C21.898 18.9349 22.6732 19.5816 23.1287 20.4663C23.5841 21.3511 23.66 22.3578 23.3423 23.3009L21.8133 27.8405C21.7129 28.1385 21.7622 28.4667 21.9456 28.7219C22.1291 28.9773 22.4243 29.1288 22.7388 29.1288H31.9292Z"/>
</mask>
<path d="M47.0703 0H8.20288C6.58744 0 5.27318 1.31427 5.27318 2.9297V19.1407C5.27318 20.7562 6.58744 22.0704 8.20288 22.0704H9.9607C10.5001 22.0704 10.9373 21.6331 10.9373 21.0939C10.9373 20.5546 10.5001 20.1173 9.9607 20.1173H8.20288C7.6644 20.1173 7.22631 19.6792 7.22631 19.1407V2.9297C7.22631 2.39122 7.6644 1.95314 8.20288 1.95314H47.0703C47.6088 1.95314 48.0469 2.39122 48.0469 2.9297V19.1407C48.0469 19.6792 47.6088 20.1173 47.0703 20.1173H40.5383C40.2793 20.1173 40.0309 20.2202 39.8478 20.4033L36.6321 23.6191L33.4163 20.4033C33.2332 20.2202 32.9848 20.1173 32.7258 20.1173H25.11C25.0382 19.9329 24.9571 19.751 24.8652 19.5725C24.166 18.214 22.9757 17.2211 21.514 16.7767L20.1021 16.3474C19.605 16.196 19.0765 16.4608 18.8997 16.9494L16.6812 23.0812C16.0658 24.7819 14.8521 26.1948 13.2638 27.0597L11.1812 28.1937C10.6694 27.5724 9.89449 27.1756 9.02857 27.1756H2.7883C1.25079 27.1756 2.28691e-08 28.4265 2.28691e-08 29.964V47.2118C-0.000195291 48.7494 1.25069 50.0003 2.7882 50.0003H9.02847C10.0005 50.0003 10.8575 49.5 11.3567 48.7436L12.3532 49.1345C13.8182 49.7092 15.3592 50.0005 16.9331 50.0005H30.1097C32.0868 50.0005 33.6952 48.3921 33.6952 46.415C33.6952 45.7606 33.5182 45.1471 33.2106 44.6185C34.6651 44.1614 35.7233 42.8006 35.7233 41.1972C35.7233 40.5262 35.5375 39.8979 35.2154 39.3603C36.608 38.8677 37.6086 37.5385 37.6086 35.9793C37.6086 34.3553 36.5229 32.9808 35.0395 32.5415C35.3411 32.0165 35.5146 31.409 35.5146 30.7613C35.5146 28.7843 33.9062 27.1758 31.9291 27.1758H24.0982L25.1933 23.9245C25.398 23.3166 25.4949 22.6916 25.4882 22.0705H32.3213L35.9415 25.6908C36.1322 25.8814 36.3821 25.9768 36.6321 25.9768C36.882 25.9768 37.132 25.8814 37.3226 25.6908L40.9429 22.0704H47.0703C48.6857 22.0704 50 20.7562 50 19.1407V2.9297C50 1.31427 48.6857 0 47.0703 0ZM9.86373 47.2119C9.86363 47.6724 9.48902 48.0472 9.02847 48.0472H2.7882C2.32765 48.0472 1.95304 47.6724 1.95304 47.2119V29.9641C1.95304 29.5036 2.32765 29.1289 2.7882 29.1289H4.93177V41.1525C4.93177 41.6917 5.36898 42.1291 5.90834 42.1291C6.44769 42.1291 6.8849 41.6917 6.8849 41.1525V29.1289H9.02847C9.39322 29.1289 9.70328 29.3643 9.81685 29.6909C9.82496 29.7382 9.83668 29.785 9.85211 29.8314C9.85904 29.8748 9.86373 29.9188 9.86373 29.9641V47.2119ZM31.9292 29.1288V29.1289C32.8293 29.1289 33.5615 29.8611 33.5615 30.7612C33.5615 31.6613 32.8293 32.3936 31.9292 32.3936H26.6312C26.0919 32.3936 25.6546 32.831 25.6546 33.3702C25.6546 33.9095 26.0919 34.3468 26.6312 34.3468L34.0232 34.347C34.9233 34.347 35.6556 35.0792 35.6556 35.9793C35.6556 36.8794 34.9233 37.6117 34.0232 37.6117H26.6312C26.0919 37.6117 25.6546 38.049 25.6546 38.5883C25.6546 39.1276 26.0919 39.5649 26.6312 39.5649H32.1379C33.038 39.5649 33.7702 40.2971 33.7702 41.1972C33.7702 42.0973 33.038 42.8295 32.1379 42.8295H26.6312C26.0919 42.8295 25.6546 43.2669 25.6546 43.8061C25.6546 44.3454 26.0919 44.7827 26.6312 44.7827H30.1098C31.0099 44.7827 31.7422 45.515 31.7422 46.4151C31.7422 47.3152 31.0099 48.0474 30.1098 48.0474H16.9331C15.6043 48.0474 14.3033 47.8013 13.0663 47.3163L11.8168 46.8262V30.0716L14.1977 28.7751C16.2057 27.6817 17.7398 25.8957 18.5176 23.7457L20.4208 18.4858L20.9458 18.6453C21.898 18.9349 22.6732 19.5816 23.1287 20.4663C23.5841 21.3511 23.66 22.3578 23.3423 23.3009L21.8133 27.8405C21.7129 28.1385 21.7622 28.4667 21.9456 28.7219C22.1291 28.9773 22.4243 29.1288 22.7388 29.1288H31.9292Z" fill="#DD255D" stroke="white" stroke-width="0.4" mask="url(#path-2-inside-1_14_578)"/>
<path d="M42.4739 8.24925L42.4507 8.20211L41.6777 6.63716L41.7674 6.59288L41.6777 6.63716C41.4297 6.13504 40.9286 5.82363 40.3686 5.82363H40.3686H40.3686H40.3686H40.3686H40.3686H40.3686H40.3686H40.3686H40.3686H40.3686H40.3686H40.3686H40.3686H40.3686H40.3686H40.3686H40.3686H40.3685H40.3685H40.3685H40.3685H40.3685H40.3685H40.3685H40.3685H40.3685H40.3685H40.3685H40.3685H40.3685H40.3685H40.3685H40.3685H40.3685H40.3685H40.3685H40.3685H40.3685H40.3685H40.3685H40.3685H40.3685H40.3684H40.3684H40.3684H40.3684H40.3684H40.3684H40.3684H40.3684H40.3684H40.3684H40.3684H40.3684H40.3684H40.3684H40.3684H40.3684H40.3684H40.3684H40.3684H40.3684H40.3684H40.3684H40.3684H40.3684H40.3684H40.3683H40.3683H40.3683H40.3683H40.3683H40.3683H40.3683H40.3683H40.3683H40.3683H40.3683H40.3683H40.3683H40.3683H40.3683H40.3683H40.3683H40.3683H40.3683H40.3683H40.3683H40.3683L42.4739 8.24925ZM42.4739 8.24925L42.526 8.25679M42.4739 8.24925L42.526 8.25679M42.526 8.25679L44.2533 8.50728C44.8076 8.58766 45.259 8.96802 45.4321 9.50058M42.526 8.25679L45.4321 9.50058M39.0593 6.63779L39.0593 6.63779L38.2872 8.20323L38.2639 8.25038L38.2119 8.25796L36.4846 8.50942C35.9303 8.59016 35.4792 8.97071 35.3063 9.50345L35.3063 9.50346C35.1334 10.0361 35.2749 10.6092 35.6762 11.0001L36.9264 12.2181L36.964 12.2547L36.9552 12.3066L36.6605 14.027C36.566 14.5791 36.7884 15.1257 37.2417 15.4549C37.498 15.641 37.7971 15.7351 38.0982 15.7351C38.3301 15.7351 38.5635 15.6792 38.7795 15.5656L40.3243 14.7529L40.3708 14.7284L40.4174 14.7528L41.9626 15.5647C42.4584 15.8251 43.0471 15.7824 43.5002 15.4531C43.9532 15.1237 44.1754 14.5769 44.0805 14.0249L43.785 12.3047L43.7761 12.2528L43.8138 12.2161L45.0634 10.9974L39.0593 6.63779ZM39.0593 6.63779C39.307 6.13552 39.8081 5.82383 40.3682 5.82363L39.0593 6.63779ZM45.4321 9.50058C45.6053 10.0331 45.4641 10.6062 45.0635 10.9974L45.4321 9.50058ZM42.4415 11.1054L42.4415 11.1054L43.2687 10.2984L43.4138 10.1569L43.2133 10.1278L42.0696 9.962C42.0696 9.962 42.0696 9.962 42.0696 9.962C41.594 9.89299 41.183 9.59459 40.9701 9.16365C40.9701 9.16365 40.9701 9.16364 40.9701 9.16364L40.4584 8.12751L40.3687 7.94585L40.279 8.12755L39.7678 9.16399L39.7678 9.16401C39.5553 9.59502 39.1445 9.89369 38.6688 9.96288L38.6688 9.96288L37.5251 10.1294L37.3246 10.1586L37.4697 10.3L38.2976 11.1064L38.2976 11.1064C38.6419 11.4418 38.799 11.9249 38.7178 12.3988L38.8164 12.4157L38.7178 12.3988L38.5228 13.5378L38.4886 13.7375L38.6679 13.6431L39.6907 13.105L39.6907 13.105C40.1157 12.8813 40.6236 12.8813 41.0492 13.1045L42.0725 13.6422L42.2519 13.7364L42.2176 13.5367L42.022 12.3979C41.9406 11.9241 42.0974 11.4409 42.4415 11.1054Z" fill="#DD255D" stroke="white" stroke-width="0.2"/>
<path d="M30.0511 8.24925L30.0278 8.20211L29.2548 6.63716L29.3445 6.59288L29.2548 6.63716C29.0069 6.13504 28.5058 5.82363 27.9458 5.82363H27.9458H27.9458H27.9458H27.9458H27.9457H27.9457H27.9457H27.9457H27.9457H27.9457H27.9457H27.9457H27.9457H27.9457H27.9457H27.9457H27.9457H27.9457H27.9457H27.9457H27.9457H27.9457H27.9457H27.9457H27.9457H27.9457H27.9457H27.9457H27.9457H27.9457H27.9456H27.9456H27.9456H27.9456H27.9456H27.9456H27.9456H27.9456H27.9456H27.9456H27.9456H27.9456H27.9456H27.9456H27.9456H27.9456H27.9456H27.9456H27.9456H27.9456H27.9456H27.9456H27.9456H27.9455H27.9455H27.9455H27.9455H27.9455H27.9455H27.9455H27.9455H27.9455H27.9455H27.9455H27.9455H27.9455H27.9455H27.9455H27.9455H27.9455H27.9455H27.9455H27.9455H27.9455H27.9455H27.9455H27.9455H27.9455H27.9454H27.9454H27.9454H27.9454H27.9454H27.9454H27.9454H27.9454H27.9454H27.9454L30.0511 8.24925ZM30.0511 8.24925L30.1031 8.25679M30.0511 8.24925L30.1031 8.25679M30.1031 8.25679L31.8305 8.50728C32.3848 8.58775 32.836 8.96802 33.0093 9.50059C33.1826 10.0332 33.0413 10.6062 32.6405 10.9974C32.6405 10.9974 32.6405 10.9974 32.6405 10.9974L31.3908 12.2161L31.3532 12.2528L31.3621 12.3047L31.6576 14.0249C31.7524 14.5769 31.5302 15.1237 31.0772 15.4531C30.624 15.7824 30.0356 15.8251 29.5396 15.5647C29.5396 15.5647 29.5396 15.5647 29.5396 15.5646L27.9943 14.7528L27.9478 14.7284L27.9013 14.7529L26.3564 15.5656C26.1405 15.6792 25.9071 15.7351 25.6752 15.7351C25.3743 15.7351 25.075 15.641 24.8189 15.4549L24.8189 15.4549C24.3657 15.1258 24.1431 14.5791 24.2377 14.027L24.5323 12.3066L24.5412 12.2547L24.5035 12.2181L23.2533 11.0001C22.8521 10.6092 22.7105 10.0361 22.8834 9.50346L22.8834 9.50345C23.0564 8.97071 23.5075 8.59016 24.0617 8.50942L25.7891 8.25796L25.8411 8.25038L25.8644 8.20323L26.6363 6.63789L26.6363 6.63788M30.1031 8.25679L26.6363 6.63788M26.6363 6.63788C26.884 6.13552 27.3853 5.82383 27.9454 5.82363L26.6363 6.63788ZM30.0186 11.1054L30.0186 11.1054L30.8458 10.2984L30.9908 10.1569L30.7903 10.1278L29.6467 9.962C29.6467 9.962 29.6467 9.962 29.6467 9.962C29.1709 9.89299 28.7598 9.59449 28.5471 9.16347L28.5471 9.16346L28.0354 8.12742L27.9457 7.94573L27.8561 8.12746L27.345 9.16388C27.1322 9.59512 26.7213 9.8937 26.2457 9.96288L26.2457 9.96288L25.1021 10.1294L24.9016 10.1586L25.0468 10.3L25.8746 11.1064L25.8746 11.1064C26.2189 11.4418 26.376 11.9249 26.2949 12.3988L26.3934 12.4157L26.2949 12.3988L26.0998 13.5378L26.0656 13.7375L26.245 13.6431L27.2677 13.105C27.6928 12.8814 28.2007 12.8811 28.6263 13.1046C28.6263 13.1046 28.6263 13.1046 28.6263 13.1046L29.6497 13.6422L29.829 13.7364L29.7947 13.5367L29.5991 12.3979C29.5178 11.9241 29.6745 11.4409 30.0186 11.1054Z" fill="#DD255D" stroke="white" stroke-width="0.2"/>
<path d="M17.6273 8.24925L17.6041 8.20211L16.8311 6.63716L16.9208 6.59288L16.8311 6.63716C16.5831 6.13504 16.082 5.82363 15.522 5.82363H15.522H15.522H15.522H15.522H15.522H15.522H15.522H15.522H15.522H15.522H15.522H15.522H15.522H15.522H15.522H15.522H15.522H15.522H15.5219H15.5219H15.5219H15.5219H15.5219H15.5219H15.5219H15.5219H15.5219H15.5219H15.5219H15.5219H15.5219H15.5219H15.5219H15.5219H15.5219H15.5219H15.5219H15.5219H15.5219H15.5219H15.5219H15.5219H15.5218H15.5218H15.5218H15.5218H15.5218H15.5218H15.5218H15.5218H15.5218H15.5218H15.5218H15.5218H15.5218H15.5218H15.5218H15.5218H15.5218H15.5218H15.5218H15.5218H15.5218H15.5218H15.5218H15.5218H15.5217H15.5217H15.5217H15.5217H15.5217H15.5217H15.5217H15.5217H15.5217H15.5217H15.5217H15.5217H15.5217H15.5217H15.5217H15.5217H15.5217H15.5217H15.5217H15.5217H15.5217H15.5217L17.6273 8.24925ZM17.6273 8.24925L17.6794 8.25679M17.6273 8.24925L17.6794 8.25679M17.6794 8.25679L19.4067 8.50728C19.9609 8.58766 20.4123 8.96801 20.5855 9.50057C20.7587 10.0332 20.6176 10.6062 20.2166 10.9974C20.2166 10.9974 20.2166 10.9974 20.2166 10.9974L18.9669 12.2161L18.9292 12.2528L18.9381 12.3047L19.2336 14.0249C19.3285 14.5769 19.1063 15.1237 18.6533 15.4531C18.2002 15.7824 17.6115 15.8251 17.1157 15.5647L15.5705 14.7528L15.5239 14.7284L15.4774 14.7529L13.9326 15.5656C13.7166 15.6792 13.4833 15.7351 13.2514 15.7351C12.9504 15.7351 12.6512 15.641 12.395 15.4549L12.395 15.4549C11.9418 15.1258 11.7193 14.5791 11.8138 14.027L12.1085 12.3066L12.1173 12.2547M17.6794 8.25679L12.1173 12.2547M14.2126 6.63788L14.2126 6.63789L13.4406 8.20323L13.4173 8.25038L13.3653 8.25796L11.638 8.50942C11.638 8.50942 11.638 8.50942 11.638 8.50942C11.0837 8.59017 10.6326 8.97079 10.4596 9.50356L14.2126 6.63788ZM14.2126 6.63788C14.4603 6.13552 14.9615 5.82383 15.5216 5.82363L14.2126 6.63788ZM12.1173 12.2547L12.0797 12.2181M12.1173 12.2547L12.0797 12.2181M12.0797 12.2181L10.8295 11.0001C10.4283 10.6093 10.2867 10.0362 10.4596 9.50357L12.0797 12.2181ZM17.5949 11.1054L17.5949 11.1054L18.4221 10.2984L18.5672 10.1569L18.3667 10.1278L17.2229 9.962C16.7472 9.89299 16.3361 9.59449 16.1233 9.16347L16.1233 9.16346L15.6117 8.12742L15.522 7.94573L15.4323 8.12746L14.9212 9.16388C14.7084 9.59512 14.2976 9.8937 13.822 9.96288L13.822 9.96288L12.6784 10.1294L12.4779 10.1586L12.623 10.3L13.4509 11.1064C13.4509 11.1064 13.4509 11.1064 13.4509 11.1064C13.7951 11.4419 13.9522 11.9248 13.8712 12.3985C13.8712 12.3985 13.8712 12.3985 13.8712 12.3985L13.6761 13.5378L13.6419 13.7375L13.8212 13.6431L14.844 13.105L14.844 13.105C15.269 12.8814 15.777 12.8811 16.2026 13.1046L17.2259 13.6422L17.4053 13.7364L17.371 13.5367L17.1754 12.3979C17.094 11.9241 17.2508 11.4409 17.5949 11.1054Z" fill="#DD255D" stroke="white" stroke-width="0.2"/>
<path d="M5.03164 44.6646C5.03164 44.1805 5.42409 43.788 5.90821 43.788C6.39233 43.788 6.78478 44.1805 6.78478 44.6646V44.6798C6.78478 45.1638 6.39233 45.5564 5.90821 45.5564C5.42409 45.5564 5.03164 45.1638 5.03164 44.6798V44.6646Z" fill="#DD255D" stroke="white" stroke-width="0.2"/>
</svg>
